<?xml version="1.0" encoding="utf-8"?>
<!-- Generator: Adobe Illustrator 18.0.0, SVG Export Plug-In . SVG Version: 6.00 Build 0)  -->
<!DOCTYPE svg PUBLIC "-//W3C//DTD SVG 1.1//EN" "http://www.w3.org/Graphics/SVG/1.1/DTD/svg11.dtd">
<svg version="1.1" id="Layer_1" xmlns="http://www.w3.org/2000/svg" xmlns:xlink="http://www.w3.org/1999/xlink" x="0px" y="0px"
	 width="170px" height="170px" viewBox="0 0 170 170" enable-background="new 0 0 170 170" xml:space="preserve">
<circle fill="none" cx="85" cy="85" r="85.33"/>
<circle fill="#00A99D" cx="85" cy="85" r="85.33"/>
<circle fill="none" cx="85" cy="85" r="85.33"/>
<path fill="none" d="M49.96,84.74l53.5,6.5c0.04,0,0.08,0.01,0.12,0.01c2.67,0.24,4.14,1.48,4.06,3.4
	c-0.05,1.16-0.89,3.12-3.69,3.12H59.57L47.2,84.06l-0.15-1.19C47.68,83.89,48.74,84.59,49.96,84.74z"/>
<path fill="#038273" d="M59.57,97.77h44.37c2.8,0,3.64-1.96,3.69-3.12c0.09-1.92-1.39-3.16-4.06-3.4c-0.04,0-0.08-0.01-0.12-0.01
	l-53.5-6.5c-1.22-0.15-2.28-0.85-2.91-1.87l0.15,1.19L59.57,97.77z"/>
<path fill="#038273" d="M54.6,122.88c0.01-1.81,1.27-3.14,3-3.14c1.76,0,3.14,1.38,3.14,3.14c0,1.65-1.41,3-3.14,3
	C55.92,125.88,54.6,124.56,54.6,122.88z M114.14,119.74c-1.85,0-3.14,1.3-3.14,3.14c0,1.74,1.32,3,3.14,3c1.63,0,3-1.38,3-3
	C117.14,121.15,115.79,119.74,114.14,119.74z M170.33,85c0,44.8-34.53,81.51-78.42,85.03L50.7,128.81l0.03-0.1
	c1.63,1.93,4.07,3.17,6.87,3.17c5.08,0,9.14-4.06,9.14-9c0.01-5.07-4.06-9.14-9.14-9.14c-0.89,0-1.74,0.13-2.55,0.36l-9.82-9.82
	l0.11-0.02c0.73,0.91,1.84,1.51,3.1,1.51h55.5c7.27,0,11.45-5.54,11.69-10.75c0.23-5.12-3.19-10.96-11.26-11.72L53.41,77.1
	l-8.42-24.58c-0.02-0.05-0.07-0.19,0.04-0.34c0.11-0.16,0.25-0.16,0.31-0.16h66.84c1.34,0,2.58-0.67,3.33-1.78l5.43-8.13h8.11
	c2.21,0,4-1.79,4-4c0-0.79-0.24-1.52-0.63-2.14l37.06,37.06C170.03,76.94,170.33,80.93,170.33,85z M123.14,122.88
	c0-5.07-4.06-9.14-9-9.14c-5.23,0-9.14,4.07-9.14,9.14c0,4.93,3.92,9,9.14,9C119.07,131.88,123.14,127.82,123.14,122.88z"/>
<path fill="#FFFFFF" d="M103.94,105.77h-55.5c-2.21,0-4-1.79-4-4s1.79-4,4-4h55.5c2.8,0,3.64-1.96,3.69-3.12
	c0.09-1.92-1.39-3.16-4.06-3.4c-0.04,0-0.08-0.01-0.12-0.01l-53.5-6.5c-1.52-0.19-2.8-1.22-3.3-2.67l-9.2-26.86
	c-0.92-2.48-0.55-5.35,1.01-7.6c1.56-2.25,4.13-3.59,6.88-3.59h64.7l5.43-8.13c0.74-1.11,1.99-1.78,3.33-1.78h10.25
	c2.21,0,4,1.79,4,4s-1.79,4-4,4h-8.11l-5.43,8.13c-0.74,1.11-1.99,1.78-3.33,1.78H45.34c-0.05,0-0.2,0-0.31,0.16
	c-0.11,0.16-0.06,0.29-0.04,0.34l8.42,24.58l50.95,6.19c8.07,0.76,11.49,6.61,11.26,11.72
	C115.39,100.23,111.21,105.77,103.94,105.77z M76.82,68.22l-9.75-0.8l-3.98-10.54h-6.41l6.11,16.27l16.42,1.43L76.82,68.22z
	 M107.67,70.5l-2.3-6.15l-7.08-0.42l-2.58-7.06l-6.39-0.01l2.44,6.68l-7.88-0.47l2.32,6.15l7.81,0.47l2.32,6.33l6.6,0.58l-2.39-6.52
	L107.67,70.5z M57.6,119.74c-1.73,0-2.99,1.33-3,3.14c0,1.68,1.32,3,3,3c1.73,0,3.14-1.35,3.14-3
	C60.74,121.12,59.36,119.74,57.6,119.74 M57.6,113.74c5.08,0,9.15,4.07,9.14,9.14c0,4.94-4.06,9-9.14,9s-9-4.07-9-9
	C48.6,117.81,52.52,113.74,57.6,113.74L57.6,113.74z M114.14,119.74c-1.85,0-3.14,1.3-3.14,3.14c0,1.74,1.32,3,3.14,3
	c1.63,0,3-1.38,3-3C117.14,121.15,115.79,119.74,114.14,119.74 M114.14,113.74c4.94,0,9,4.07,9,9.14c0,4.94-4.07,9-9,9
	c-5.22,0-9.14-4.07-9.14-9C105,117.81,108.91,113.74,114.14,113.74L114.14,113.74z"/>
</svg>
